<svg xmlns="http://www.w3.org/2000/svg" xmlns:xlink="http://www.w3.org/1999/xlink" width="28" height="24"><defs><path id="a" d="M729 1175.02h-18a3 3 0 0 1-3.01-3v-7.5c0-.17.02-.33.07-.48l2.77-8.3a2.62 2.62 0 0 1 2.43-1.73h13.48c1.1.02 2.06.7 2.43 1.73l2.77 8.3c.05.15.07.31.07.47v7.52a3 3 0 0 1-3.01 2.99zm-2.57-18h-12.86l-2 6h4.18a1.5 1.5 0 0 1 1.32.81l.07.14.03.04a3 3 0 0 0 5.66 0l.03-.04.07-.14a1.39 1.39 0 0 1 .64-.64l.15-.07c.17-.07.34-.1.53-.1h4.18zm2.58 9h-3.82a6 6 0 0 1-10.38 0h-3.82v6h18.02z"/></defs><use fill="#fff" xlink:href="#a" transform="translate(-706 -1153)"/></svg>